<mxfile host="app.diagrams.net" modified="2024-02-19T07:25:25.902Z" agent="Mozilla/5.0 (Windows NT 10.0; Win64; x64) AppleWebKit/537.36 (KHTML, like Gecko) Chrome/121.0.0.0 Safari/537.36" etag="o0ZWPq7coAsHCXnE2E3o" version="23.1.1" type="github">
  <diagram name="第 1 页" id="mMZEBTTdIN2JeKHLNIeS">
    <mxGraphModel dx="1434" dy="758" grid="1" gridSize="10" guides="1" tooltips="1" connect="1" arrows="1" fold="1" page="1" pageScale="1" pageWidth="827" pageHeight="1169" math="0" shadow="0">
      <root>
        <mxCell id="0" />
        <mxCell id="1" parent="0" />
        <mxCell id="fn71pbya2OXmnBk7wgXR-1" value="" style="rounded=0;whiteSpace=wrap;html=1;" vertex="1" parent="1">
          <mxGeometry x="120" y="482" width="560" height="200" as="geometry" />
        </mxCell>
        <mxCell id="fn71pbya2OXmnBk7wgXR-2" value="" style="rounded=0;whiteSpace=wrap;html=1;" vertex="1" parent="1">
          <mxGeometry x="119" y="80" width="560" height="150" as="geometry" />
        </mxCell>
        <mxCell id="fn71pbya2OXmnBk7wgXR-3" value="" style="rounded=0;whiteSpace=wrap;html=1;" vertex="1" parent="1">
          <mxGeometry x="119" y="362" width="560" height="120" as="geometry" />
        </mxCell>
        <mxCell id="fn71pbya2OXmnBk7wgXR-4" value="组件" style="ellipse;whiteSpace=wrap;html=1;aspect=fixed;fillColor=#fff2cc;strokeColor=#d6b656;fontColor=#4D4D4D;" vertex="1" parent="1">
          <mxGeometry x="201" y="613" width="40" height="40" as="geometry" />
        </mxCell>
        <mxCell id="fn71pbya2OXmnBk7wgXR-5" value="组件" style="ellipse;whiteSpace=wrap;html=1;aspect=fixed;fillColor=#fff2cc;strokeColor=#d6b656;fontColor=#4D4D4D;" vertex="1" parent="1">
          <mxGeometry x="261" y="613" width="40" height="40" as="geometry" />
        </mxCell>
        <mxCell id="fn71pbya2OXmnBk7wgXR-6" value="组件" style="ellipse;whiteSpace=wrap;html=1;aspect=fixed;fillColor=#fff2cc;strokeColor=#d6b656;fontColor=#4D4D4D;" vertex="1" parent="1">
          <mxGeometry x="321" y="613" width="40" height="40" as="geometry" />
        </mxCell>
        <mxCell id="fn71pbya2OXmnBk7wgXR-7" value="组件" style="ellipse;whiteSpace=wrap;html=1;aspect=fixed;fillColor=#fff2cc;strokeColor=#d6b656;fontColor=#4D4D4D;" vertex="1" parent="1">
          <mxGeometry x="381" y="613" width="40" height="40" as="geometry" />
        </mxCell>
        <mxCell id="fn71pbya2OXmnBk7wgXR-8" value="组件" style="ellipse;whiteSpace=wrap;html=1;aspect=fixed;fillColor=#fff2cc;strokeColor=#d6b656;fontColor=#4D4D4D;" vertex="1" parent="1">
          <mxGeometry x="435" y="613" width="40" height="40" as="geometry" />
        </mxCell>
        <mxCell id="fn71pbya2OXmnBk7wgXR-9" value="组件" style="ellipse;whiteSpace=wrap;html=1;aspect=fixed;fillColor=#fff2cc;strokeColor=#d6b656;fontColor=#4D4D4D;" vertex="1" parent="1">
          <mxGeometry x="491" y="613" width="40" height="40" as="geometry" />
        </mxCell>
        <mxCell id="fn71pbya2OXmnBk7wgXR-10" value="组件" style="ellipse;whiteSpace=wrap;html=1;aspect=fixed;fillColor=#fff2cc;strokeColor=#d6b656;fontColor=#4D4D4D;" vertex="1" parent="1">
          <mxGeometry x="551" y="613" width="40" height="40" as="geometry" />
        </mxCell>
        <mxCell id="fn71pbya2OXmnBk7wgXR-12" value="块" style="ellipse;whiteSpace=wrap;html=1;aspect=fixed;fillColor=#fff2cc;strokeColor=#d6b656;fontColor=#4D4D4D;" vertex="1" parent="1">
          <mxGeometry x="201" y="552" width="40" height="40" as="geometry" />
        </mxCell>
        <mxCell id="fn71pbya2OXmnBk7wgXR-13" value="块" style="ellipse;whiteSpace=wrap;html=1;aspect=fixed;fillColor=#fff2cc;strokeColor=#d6b656;fontColor=#4D4D4D;" vertex="1" parent="1">
          <mxGeometry x="261" y="552" width="40" height="40" as="geometry" />
        </mxCell>
        <mxCell id="fn71pbya2OXmnBk7wgXR-14" value="块" style="ellipse;whiteSpace=wrap;html=1;aspect=fixed;fillColor=#fff2cc;strokeColor=#d6b656;fontColor=#4D4D4D;" vertex="1" parent="1">
          <mxGeometry x="321" y="552" width="40" height="40" as="geometry" />
        </mxCell>
        <mxCell id="fn71pbya2OXmnBk7wgXR-15" value="块" style="ellipse;whiteSpace=wrap;html=1;aspect=fixed;fillColor=#fff2cc;strokeColor=#d6b656;fontColor=#4D4D4D;" vertex="1" parent="1">
          <mxGeometry x="381" y="552" width="40" height="40" as="geometry" />
        </mxCell>
        <mxCell id="fn71pbya2OXmnBk7wgXR-16" value="块" style="ellipse;whiteSpace=wrap;html=1;aspect=fixed;fillColor=#fff2cc;strokeColor=#d6b656;fontColor=#4D4D4D;" vertex="1" parent="1">
          <mxGeometry x="435" y="552" width="40" height="40" as="geometry" />
        </mxCell>
        <mxCell id="fn71pbya2OXmnBk7wgXR-17" value="块" style="ellipse;whiteSpace=wrap;html=1;aspect=fixed;fillColor=#fff2cc;strokeColor=#d6b656;fontColor=#4D4D4D;" vertex="1" parent="1">
          <mxGeometry x="491" y="552" width="40" height="40" as="geometry" />
        </mxCell>
        <mxCell id="fn71pbya2OXmnBk7wgXR-18" value="块" style="ellipse;whiteSpace=wrap;html=1;aspect=fixed;fillColor=#fff2cc;strokeColor=#d6b656;fontColor=#4D4D4D;" vertex="1" parent="1">
          <mxGeometry x="551" y="552" width="40" height="40" as="geometry" />
        </mxCell>
        <mxCell id="fn71pbya2OXmnBk7wgXR-19" value="模板" style="ellipse;whiteSpace=wrap;html=1;aspect=fixed;fillColor=#fff2cc;strokeColor=#d6b656;fontColor=#4D4D4D;" vertex="1" parent="1">
          <mxGeometry x="199" y="492" width="40" height="40" as="geometry" />
        </mxCell>
        <mxCell id="fn71pbya2OXmnBk7wgXR-20" value="模板" style="ellipse;whiteSpace=wrap;html=1;aspect=fixed;fillColor=#fff2cc;strokeColor=#d6b656;fontColor=#4D4D4D;" vertex="1" parent="1">
          <mxGeometry x="259" y="492" width="40" height="40" as="geometry" />
        </mxCell>
        <mxCell id="fn71pbya2OXmnBk7wgXR-21" value="模板" style="ellipse;whiteSpace=wrap;html=1;aspect=fixed;fillColor=#fff2cc;strokeColor=#d6b656;fontColor=#4D4D4D;" vertex="1" parent="1">
          <mxGeometry x="319" y="492" width="40" height="40" as="geometry" />
        </mxCell>
        <mxCell id="fn71pbya2OXmnBk7wgXR-22" value="模板" style="ellipse;whiteSpace=wrap;html=1;aspect=fixed;fillColor=#fff2cc;strokeColor=#d6b656;fontColor=#4D4D4D;" vertex="1" parent="1">
          <mxGeometry x="379" y="492" width="40" height="40" as="geometry" />
        </mxCell>
        <mxCell id="fn71pbya2OXmnBk7wgXR-23" value="模板" style="ellipse;whiteSpace=wrap;html=1;aspect=fixed;fillColor=#fff2cc;strokeColor=#d6b656;fontColor=#4D4D4D;" vertex="1" parent="1">
          <mxGeometry x="433" y="492" width="40" height="40" as="geometry" />
        </mxCell>
        <mxCell id="fn71pbya2OXmnBk7wgXR-24" value="模板" style="ellipse;whiteSpace=wrap;html=1;aspect=fixed;fillColor=#fff2cc;strokeColor=#d6b656;fontColor=#4D4D4D;" vertex="1" parent="1">
          <mxGeometry x="489" y="492" width="40" height="40" as="geometry" />
        </mxCell>
        <mxCell id="fn71pbya2OXmnBk7wgXR-25" value="模板" style="ellipse;whiteSpace=wrap;html=1;aspect=fixed;fillColor=#fff2cc;strokeColor=#d6b656;fontColor=#4D4D4D;" vertex="1" parent="1">
          <mxGeometry x="549" y="492" width="40" height="40" as="geometry" />
        </mxCell>
        <mxCell id="fn71pbya2OXmnBk7wgXR-27" value="" style="whiteSpace=wrap;html=1;aspect=fixed;" vertex="1" parent="1">
          <mxGeometry x="180" y="382" width="40" height="40" as="geometry" />
        </mxCell>
        <mxCell id="fn71pbya2OXmnBk7wgXR-28" value="" style="whiteSpace=wrap;html=1;aspect=fixed;" vertex="1" parent="1">
          <mxGeometry x="239" y="382" width="40" height="40" as="geometry" />
        </mxCell>
        <mxCell id="fn71pbya2OXmnBk7wgXR-29" value="" style="whiteSpace=wrap;html=1;aspect=fixed;" vertex="1" parent="1">
          <mxGeometry x="299" y="382" width="40" height="40" as="geometry" />
        </mxCell>
        <mxCell id="fn71pbya2OXmnBk7wgXR-30" value="" style="whiteSpace=wrap;html=1;aspect=fixed;" vertex="1" parent="1">
          <mxGeometry x="359" y="382" width="40" height="40" as="geometry" />
        </mxCell>
        <mxCell id="fn71pbya2OXmnBk7wgXR-31" value="" style="whiteSpace=wrap;html=1;aspect=fixed;" vertex="1" parent="1">
          <mxGeometry x="414" y="382" width="40" height="40" as="geometry" />
        </mxCell>
        <mxCell id="fn71pbya2OXmnBk7wgXR-32" value="" style="whiteSpace=wrap;html=1;aspect=fixed;" vertex="1" parent="1">
          <mxGeometry x="480" y="382" width="40" height="40" as="geometry" />
        </mxCell>
        <mxCell id="fn71pbya2OXmnBk7wgXR-33" value="" style="whiteSpace=wrap;html=1;aspect=fixed;" vertex="1" parent="1">
          <mxGeometry x="540" y="382" width="40" height="40" as="geometry" />
        </mxCell>
        <mxCell id="fn71pbya2OXmnBk7wgXR-34" value="" style="whiteSpace=wrap;html=1;aspect=fixed;" vertex="1" parent="1">
          <mxGeometry x="591" y="382" width="40" height="40" as="geometry" />
        </mxCell>
        <mxCell id="fn71pbya2OXmnBk7wgXR-35" value="" style="whiteSpace=wrap;html=1;aspect=fixed;" vertex="1" parent="1">
          <mxGeometry x="180" y="432" width="40" height="40" as="geometry" />
        </mxCell>
        <mxCell id="fn71pbya2OXmnBk7wgXR-36" value="" style="whiteSpace=wrap;html=1;aspect=fixed;" vertex="1" parent="1">
          <mxGeometry x="241" y="432" width="40" height="40" as="geometry" />
        </mxCell>
        <mxCell id="fn71pbya2OXmnBk7wgXR-37" value="" style="whiteSpace=wrap;html=1;aspect=fixed;" vertex="1" parent="1">
          <mxGeometry x="301" y="432" width="40" height="40" as="geometry" />
        </mxCell>
        <mxCell id="fn71pbya2OXmnBk7wgXR-38" value="" style="whiteSpace=wrap;html=1;aspect=fixed;" vertex="1" parent="1">
          <mxGeometry x="361" y="432" width="40" height="40" as="geometry" />
        </mxCell>
        <mxCell id="fn71pbya2OXmnBk7wgXR-39" value="" style="whiteSpace=wrap;html=1;aspect=fixed;" vertex="1" parent="1">
          <mxGeometry x="414" y="432" width="40" height="40" as="geometry" />
        </mxCell>
        <mxCell id="fn71pbya2OXmnBk7wgXR-40" value="" style="whiteSpace=wrap;html=1;aspect=fixed;" vertex="1" parent="1">
          <mxGeometry x="480" y="432" width="40" height="40" as="geometry" />
        </mxCell>
        <mxCell id="fn71pbya2OXmnBk7wgXR-41" value="" style="whiteSpace=wrap;html=1;aspect=fixed;" vertex="1" parent="1">
          <mxGeometry x="540" y="432" width="40" height="40" as="geometry" />
        </mxCell>
        <mxCell id="fn71pbya2OXmnBk7wgXR-42" value="" style="whiteSpace=wrap;html=1;aspect=fixed;" vertex="1" parent="1">
          <mxGeometry x="591" y="432" width="40" height="40" as="geometry" />
        </mxCell>
        <mxCell id="fn71pbya2OXmnBk7wgXR-43" value="水" style="rhombus;whiteSpace=wrap;html=1;" vertex="1" parent="1">
          <mxGeometry x="150" y="100" width="59" height="50" as="geometry" />
        </mxCell>
        <mxCell id="fn71pbya2OXmnBk7wgXR-44" value="沙" style="rhombus;whiteSpace=wrap;html=1;" vertex="1" parent="1">
          <mxGeometry x="302" y="100" width="59" height="50" as="geometry" />
        </mxCell>
        <mxCell id="fn71pbya2OXmnBk7wgXR-45" value="能" style="rhombus;whiteSpace=wrap;html=1;" vertex="1" parent="1">
          <mxGeometry x="229.5" y="100" width="59" height="50" as="geometry" />
        </mxCell>
        <mxCell id="fn71pbya2OXmnBk7wgXR-46" value="城" style="rhombus;whiteSpace=wrap;html=1;" vertex="1" parent="1">
          <mxGeometry x="374" y="100" width="59" height="50" as="geometry" />
        </mxCell>
        <mxCell id="fn71pbya2OXmnBk7wgXR-47" value="数" style="rhombus;whiteSpace=wrap;html=1;" vertex="1" parent="1">
          <mxGeometry x="450" y="100" width="59" height="50" as="geometry" />
        </mxCell>
        <mxCell id="fn71pbya2OXmnBk7wgXR-48" value="数" style="rhombus;whiteSpace=wrap;html=1;" vertex="1" parent="1">
          <mxGeometry x="521" y="100" width="59" height="50" as="geometry" />
        </mxCell>
        <mxCell id="fn71pbya2OXmnBk7wgXR-49" value="能" style="rhombus;whiteSpace=wrap;html=1;" vertex="1" parent="1">
          <mxGeometry x="591" y="100" width="59" height="50" as="geometry" />
        </mxCell>
        <mxCell id="fn71pbya2OXmnBk7wgXR-50" value="&lt;span style=&quot;font-weight: normal;&quot;&gt;城&lt;/span&gt;" style="rhombus;whiteSpace=wrap;html=1;fontStyle=1" vertex="1" parent="1">
          <mxGeometry x="150" y="160" width="59" height="50" as="geometry" />
        </mxCell>
        <mxCell id="fn71pbya2OXmnBk7wgXR-51" value="能" style="rhombus;whiteSpace=wrap;html=1;" vertex="1" parent="1">
          <mxGeometry x="229.5" y="160" width="59" height="50" as="geometry" />
        </mxCell>
        <mxCell id="fn71pbya2OXmnBk7wgXR-52" value="水" style="rhombus;whiteSpace=wrap;html=1;" vertex="1" parent="1">
          <mxGeometry x="301" y="160" width="59" height="50" as="geometry" />
        </mxCell>
        <mxCell id="fn71pbya2OXmnBk7wgXR-53" value="能" style="rhombus;whiteSpace=wrap;html=1;" vertex="1" parent="1">
          <mxGeometry x="371.5" y="160" width="59" height="50" as="geometry" />
        </mxCell>
        <mxCell id="fn71pbya2OXmnBk7wgXR-54" value="沙" style="rhombus;whiteSpace=wrap;html=1;" vertex="1" parent="1">
          <mxGeometry x="450" y="160" width="59" height="50" as="geometry" />
        </mxCell>
        <mxCell id="fn71pbya2OXmnBk7wgXR-55" value="城" style="rhombus;whiteSpace=wrap;html=1;" vertex="1" parent="1">
          <mxGeometry x="520" y="160" width="59" height="50" as="geometry" />
        </mxCell>
        <mxCell id="fn71pbya2OXmnBk7wgXR-56" value="能" style="rhombus;whiteSpace=wrap;html=1;" vertex="1" parent="1">
          <mxGeometry x="591" y="160" width="59" height="50" as="geometry" />
        </mxCell>
      </root>
    </mxGraphModel>
  </diagram>
</mxfile>
